<?xml version="1.0" standalone="no"?><!DOCTYPE svg PUBLIC "-//W3C//DTD SVG 1.1//EN" "http://www.w3.org/Graphics/SVG/1.1/DTD/svg11.dtd"><svg t="1591082434821" class="icon" viewBox="0 0 1024 1024" version="1.1" xmlns="http://www.w3.org/2000/svg" p-id="6880" xmlns:xlink="http://www.w3.org/1999/xlink" width="200" height="200"><defs><style type="text/css"></style></defs><path d="M874.666667 128H277.333333a21.333333 21.333333 0 0 0-21.333333 21.333333v106.666667H149.333333a21.333333 21.333333 0 0 0-21.333333 21.333333v533.333334a85.44 85.44 0 0 0 85.333333 85.333333h576a106.773333 106.773333 0 0 0 106.666667-106.666667V149.333333a21.333333 21.333333 0 0 0-21.333333-21.333333zM170.666667 810.666667V298.666667h85.333333v512a42.666667 42.666667 0 0 1-85.333333 0z m682.666666-21.333334a64.064 64.064 0 0 1-64 64H286.805333A84.352 84.352 0 0 0 298.666667 810.666667V170.666667h554.666666z" fill="#646464" p-id="6881"></path><path d="M405.333333 298.666667h341.333334a21.333333 21.333333 0 0 0 0-42.666667H405.333333a21.333333 21.333333 0 0 0 0 42.666667zM405.333333 426.666667h341.333334a21.333333 21.333333 0 0 0 0-42.666667H405.333333a21.333333 21.333333 0 0 0 0 42.666667zM405.333333 554.666667h341.333334a21.333333 21.333333 0 0 0 0-42.666667H405.333333a21.333333 21.333333 0 0 0 0 42.666667zM405.333333 682.666667h341.333334a21.333333 21.333333 0 0 0 0-42.666667H405.333333a21.333333 21.333333 0 0 0 0 42.666667z" fill="#646464" p-id="6882"></path></svg>