<?xml version="1.0" standalone="no"?><!DOCTYPE svg PUBLIC "-//W3C//DTD SVG 1.1//EN" "http://www.w3.org/Graphics/SVG/1.1/DTD/svg11.dtd"><svg t="1591082752144" class="icon" viewBox="0 0 1092 1024" version="1.1" xmlns="http://www.w3.org/2000/svg" p-id="7525" xmlns:xlink="http://www.w3.org/1999/xlink" width="213.28125" height="200"><defs><style type="text/css"></style></defs><path d="M614.4 1024H136.533333a136.533333 136.533333 0 0 1-136.533333-136.533333V136.533333a136.533333 136.533333 0 0 1 136.533333-136.533333h273.066667l113.7664 136.533333L614.4 245.76l136.533333 163.84v477.866667a136.533333 136.533333 0 0 1-136.533333 136.533333z m-136.533333-546.133333a136.533333 136.533333 0 0 1-136.533334-136.533334V136.533333H204.8a68.266667 68.266667 0 0 0-68.266667 68.266667v614.4a68.266667 68.266667 0 0 0 68.266667 68.266667h341.333333a68.266667 68.266667 0 0 0 68.266667-68.266667V477.866667h-136.533333zM887.466667 102.4a102.4 102.4 0 0 1 204.8 0v102.4h-204.8V102.4z m102.4 921.6l-102.4-238.933333V341.333333h204.8v443.733334z" p-id="7526"></path></svg>